<svg width="5413" height="1910" viewBox="0 0 5413 1910" fill="none" xmlns="http://www.w3.org/2000/svg">
<path d="M991.6 1416V429H1249.2V809.8H1656.6V429H1912.8V1416H1656.6V1021.2H1249.2V1416H991.6ZM2450.59 1431.4C2366.59 1431.4 2293.79 1416.93 2232.19 1388C2171.52 1358.13 2124.85 1316.13 2092.19 1262C2059.52 1207.87 2043.19 1143.93 2043.19 1070.2C2043.19 999.267 2058.59 937.2 2089.39 884C2121.12 829.867 2164.05 787.867 2218.19 758C2273.25 727.2 2335.79 711.8 2405.79 711.8C2475.79 711.8 2535.99 726.267 2586.39 755.2C2636.79 784.133 2675.52 825.667 2702.59 879.8C2730.59 933 2744.59 995.533 2744.59 1067.4V1122H2251.79V1004.4H2562.59L2540.19 1022.6C2540.19 972.2 2529.45 934.867 2507.99 910.6C2486.52 885.4 2456.19 872.8 2416.99 872.8C2388.05 872.8 2362.85 879.8 2341.39 893.8C2320.85 906.867 2304.99 926.467 2293.79 952.6C2282.59 978.733 2276.99 1011.4 2276.99 1050.6V1063.2C2276.99 1107.07 2283.05 1142.53 2295.19 1169.6C2308.25 1196.67 2328.32 1216.73 2355.39 1229.8C2382.45 1241.93 2416.52 1248 2457.59 1248C2493.05 1248 2529.92 1242.87 2568.19 1232.6C2607.39 1221.4 2641.92 1205.53 2671.79 1185L2733.39 1348.8C2697.92 1374 2654.52 1394.07 2603.19 1409C2551.85 1423.93 2500.99 1431.4 2450.59 1431.4ZM3091.35 1431.4C3038.15 1431.4 2991.02 1421.6 2949.95 1402C2909.82 1382.4 2878.08 1355.8 2854.75 1322.2C2832.35 1287.67 2821.15 1248.47 2821.15 1204.6C2821.15 1154.2 2834.22 1114.53 2860.35 1085.6C2886.48 1056.67 2928.48 1036.13 2986.35 1024C3044.22 1010.93 3121.22 1004.4 3217.35 1004.4H3294.35V1122H3217.35C3190.28 1122 3166.48 1123.4 3145.95 1126.2C3126.35 1129 3110.02 1133.67 3096.95 1140.2C3083.88 1145.8 3074.08 1153.27 3067.55 1162.6C3061.02 1171.93 3057.75 1182.67 3057.75 1194.8C3057.75 1216.27 3065.22 1234 3080.15 1248C3096.02 1262 3118.42 1269 3147.35 1269C3170.68 1269 3191.22 1263.87 3208.95 1253.6C3227.62 1243.33 3242.55 1229.33 3253.75 1211.6C3264.95 1192.93 3270.55 1171.47 3270.55 1147.2V984.8C3270.55 951.2 3261.68 927.4 3243.95 913.4C3227.15 899.4 3197.75 892.4 3155.75 892.4C3120.28 892.4 3081.08 898 3038.15 909.2C2995.22 920.4 2953.22 937.667 2912.15 961L2849.15 797.2C2873.42 780.4 2903.28 765.467 2938.75 752.4C2975.15 739.333 3013.42 729.533 3053.55 723C3094.62 715.533 3132.42 711.8 3166.95 711.8C3243.48 711.8 3306.48 723 3355.95 745.4C3406.35 766.867 3443.68 800.467 3467.95 846.2C3493.15 891 3505.75 948.867 3505.75 1019.8V1416H3273.35V1285.8H3281.75C3277.08 1315.67 3266.35 1341.33 3249.55 1362.8C3232.75 1384.27 3210.82 1401.07 3183.75 1413.2C3156.68 1425.33 3125.88 1431.4 3091.35 1431.4ZM3919.25 1431.4C3824.05 1431.4 3754.98 1407.6 3712.05 1360C3669.12 1311.47 3647.65 1238.67 3647.65 1141.6V429H3896.85V1133.2C3896.85 1153.73 3899.65 1171.47 3905.25 1186.4C3911.78 1201.33 3921.58 1212.53 3934.65 1220C3948.65 1227.47 3965.92 1231.2 3986.45 1231.2C3995.78 1231.2 4005.12 1230.73 4014.45 1229.8C4024.72 1228.87 4034.52 1227.47 4043.85 1225.6L4041.05 1416C4022.38 1421.6 4002.78 1425.33 3982.25 1427.2C3962.65 1430 3941.65 1431.4 3919.25 1431.4ZM4470.96 1431.4C4366.43 1431.4 4288.96 1407.13 4238.56 1358.6C4188.16 1310.07 4162.96 1236.8 4162.96 1138.8V910.6H4034.16V727.2H4162.96V527H4412.16V727.2H4608.16V910.6H4412.16V1130.4C4412.16 1164.93 4420.09 1190.6 4435.96 1207.4C4452.76 1223.27 4478.89 1231.2 4514.36 1231.2C4525.56 1231.2 4537.69 1229.8 4550.76 1227C4564.76 1224.2 4580.16 1220.93 4596.96 1217.2L4630.56 1396.4C4609.09 1407.6 4583.89 1416 4554.96 1421.6C4526.96 1428.13 4498.96 1431.4 4470.96 1431.4ZM4705.85 1416V429H4955.05V847.6H4932.65C4955.05 803.733 4986.79 770.133 5027.85 746.8C5069.85 723.467 5117.45 711.8 5170.65 711.8C5225.72 711.8 5270.99 722.533 5306.45 744C5341.92 764.533 5368.52 797.2 5386.25 842C5403.99 885.867 5412.85 941.4 5412.85 1008.6V1416H5163.65V1018.4C5163.65 990.4 5160.39 968 5153.85 951.2C5147.32 933.467 5137.52 920.867 5124.45 913.4C5112.32 905.933 5096.92 902.2 5078.25 902.2C5053.05 902.2 5031.12 907.8 5012.45 919C4993.79 929.267 4979.32 944.2 4969.05 963.8C4959.72 983.4 4955.05 1006.73 4955.05 1033.8V1416H4705.85Z" fill="#070708"/>
<path d="M989.32 1741V1628.2H1064.36V1644.52H1009V1675.56H1060.84V1691.88H1009V1724.68H1064.36V1741H989.32ZM1082.87 1741V1662.76H1102.39V1678.44H1100.63C1102.98 1672.79 1106.6 1668.52 1111.51 1665.64C1116.52 1662.65 1122.18 1661.16 1128.47 1661.16C1134.76 1661.16 1139.94 1662.33 1143.99 1664.68C1148.04 1667.03 1151.08 1670.6 1153.11 1675.4C1155.14 1680.09 1156.15 1686.07 1156.15 1693.32V1741H1136.15V1694.28C1136.15 1690.23 1135.62 1686.92 1134.55 1684.36C1133.59 1681.8 1132.04 1679.93 1129.91 1678.76C1127.88 1677.48 1125.27 1676.84 1122.07 1676.84C1118.23 1676.84 1114.87 1677.69 1111.99 1679.4C1109.11 1681 1106.87 1683.35 1105.27 1686.44C1103.67 1689.43 1102.87 1692.95 1102.87 1697V1741H1082.87ZM1212.3 1742.6C1201.85 1742.6 1194.06 1739.99 1188.94 1734.76C1183.82 1729.53 1181.26 1721.91 1181.26 1711.88V1677.8H1166.22V1662.76H1181.26V1639.4H1201.26V1662.76H1224.94V1677.8H1201.26V1710.76C1201.26 1715.88 1202.38 1719.72 1204.62 1722.28C1206.86 1724.84 1210.49 1726.12 1215.5 1726.12C1217 1726.12 1218.54 1725.96 1220.14 1725.64C1221.74 1725.21 1223.4 1724.79 1225.1 1724.36L1228.14 1739.08C1226.22 1740.15 1223.77 1741 1220.78 1741.64C1217.9 1742.28 1215.08 1742.6 1212.3 1742.6ZM1275.65 1742.6C1266.79 1742.6 1259.17 1740.95 1252.77 1737.64C1246.37 1734.33 1241.41 1729.64 1237.89 1723.56C1234.47 1717.48 1232.77 1710.28 1232.77 1701.96C1232.77 1693.85 1234.42 1686.76 1237.73 1680.68C1241.14 1674.6 1245.78 1669.85 1251.65 1666.44C1257.62 1662.92 1264.39 1661.16 1271.97 1661.16C1279.43 1661.16 1285.83 1662.76 1291.17 1665.96C1296.5 1669.16 1300.61 1673.69 1303.49 1679.56C1306.47 1685.43 1307.97 1692.41 1307.97 1700.52V1706.44H1248.93V1694.92H1293.89L1291.33 1697.32C1291.33 1690.07 1289.73 1684.52 1286.53 1680.68C1283.33 1676.73 1278.74 1674.76 1272.77 1674.76C1268.29 1674.76 1264.45 1675.83 1261.25 1677.96C1258.15 1679.99 1255.75 1682.92 1254.05 1686.76C1252.45 1690.49 1251.65 1694.97 1251.65 1700.2V1701.32C1251.65 1707.19 1252.55 1712.04 1254.37 1715.88C1256.18 1719.72 1258.9 1722.6 1262.53 1724.52C1266.15 1726.44 1270.63 1727.4 1275.97 1727.4C1280.34 1727.4 1284.71 1726.76 1289.09 1725.48C1293.46 1724.09 1297.46 1721.96 1301.09 1719.08L1306.69 1732.52C1302.95 1735.61 1298.26 1738.07 1292.61 1739.88C1286.95 1741.69 1281.3 1742.6 1275.65 1742.6ZM1323.81 1741V1662.76H1343.33V1681.64H1341.73C1343.22 1675.24 1346.15 1670.39 1350.53 1667.08C1354.9 1663.67 1360.71 1661.69 1367.97 1661.16L1374.05 1660.68L1375.33 1677.64L1363.81 1678.76C1357.3 1679.4 1352.39 1681.43 1349.09 1684.84C1345.78 1688.15 1344.13 1692.84 1344.13 1698.92V1741H1323.81ZM1386.46 1769.8V1662.76H1405.98V1679.24H1404.38C1405.98 1673.8 1409.24 1669.43 1414.14 1666.12C1419.16 1662.81 1424.97 1661.16 1431.58 1661.16C1438.41 1661.16 1444.38 1662.81 1449.5 1666.12C1454.73 1669.43 1458.78 1674.12 1461.66 1680.2C1464.54 1686.17 1465.98 1693.37 1465.98 1701.8C1465.98 1710.12 1464.54 1717.37 1461.66 1723.56C1458.78 1729.64 1454.78 1734.33 1449.66 1737.64C1444.54 1740.95 1438.52 1742.6 1431.58 1742.6C1425.08 1742.6 1419.37 1741 1414.46 1737.8C1409.56 1734.49 1406.25 1730.23 1404.54 1725H1406.46V1769.8H1386.46ZM1425.98 1727.4C1431.96 1727.4 1436.76 1725.27 1440.38 1721C1444.01 1716.63 1445.82 1710.23 1445.82 1701.8C1445.82 1693.27 1444.01 1686.92 1440.38 1682.76C1436.76 1678.49 1431.96 1676.36 1425.98 1676.36C1420.01 1676.36 1415.21 1678.49 1411.58 1682.76C1407.96 1686.92 1406.14 1693.27 1406.14 1701.8C1406.14 1710.23 1407.96 1716.63 1411.58 1721C1415.21 1725.27 1420.01 1727.4 1425.98 1727.4ZM1482.4 1741V1662.76H1501.92V1681.64H1500.32C1501.81 1675.24 1504.75 1670.39 1509.12 1667.08C1513.49 1663.67 1519.31 1661.69 1526.56 1661.16L1532.64 1660.68L1533.92 1677.64L1522.4 1678.76C1515.89 1679.4 1510.99 1681.43 1507.68 1684.84C1504.37 1688.15 1502.72 1692.84 1502.72 1698.92V1741H1482.4ZM1543.78 1645.96V1626.44H1566.18V1645.96H1543.78ZM1545.06 1741V1662.76H1565.06V1741H1545.06ZM1614.48 1742.6C1610.1 1742.6 1605.84 1742.23 1601.68 1741.48C1597.62 1740.73 1593.89 1739.72 1590.48 1738.44C1587.06 1737.05 1584.08 1735.35 1581.52 1733.32L1586.64 1720.2C1589.3 1721.91 1592.18 1723.4 1595.28 1724.68C1598.37 1725.96 1601.57 1726.92 1604.88 1727.56C1608.18 1728.2 1611.44 1728.52 1614.64 1728.52C1619.76 1728.52 1623.54 1727.67 1626 1725.96C1628.56 1724.15 1629.84 1721.8 1629.84 1718.92C1629.84 1716.47 1628.98 1714.6 1627.28 1713.32C1625.68 1711.93 1623.22 1710.92 1619.92 1710.28L1603.92 1707.24C1597.3 1705.96 1592.24 1703.56 1588.72 1700.04C1585.3 1696.41 1583.6 1691.77 1583.6 1686.12C1583.6 1681 1584.98 1676.57 1587.76 1672.84C1590.64 1669.11 1594.58 1666.23 1599.6 1664.2C1604.61 1662.17 1610.37 1661.16 1616.88 1661.16C1620.61 1661.16 1624.24 1661.53 1627.76 1662.28C1631.28 1662.92 1634.58 1663.93 1637.68 1665.32C1640.88 1666.6 1643.65 1668.31 1646 1670.44L1640.56 1683.56C1638.53 1681.85 1636.18 1680.41 1633.52 1679.24C1630.85 1677.96 1628.08 1677 1625.2 1676.36C1622.42 1675.61 1619.7 1675.24 1617.04 1675.24C1611.81 1675.24 1607.92 1676.15 1605.36 1677.96C1602.9 1679.77 1601.68 1682.17 1601.68 1685.16C1601.68 1687.4 1602.42 1689.27 1603.92 1690.76C1605.41 1692.25 1607.7 1693.27 1610.8 1693.8L1626.8 1696.84C1633.73 1698.12 1638.96 1700.47 1642.48 1703.88C1646.1 1707.29 1647.92 1711.88 1647.92 1717.64C1647.92 1722.87 1646.53 1727.35 1643.76 1731.08C1640.98 1734.81 1637.09 1737.69 1632.08 1739.72C1627.06 1741.64 1621.2 1742.6 1614.48 1742.6ZM1702.52 1742.6C1693.67 1742.6 1686.04 1740.95 1679.64 1737.64C1673.24 1734.33 1668.28 1729.64 1664.76 1723.56C1661.35 1717.48 1659.64 1710.28 1659.64 1701.96C1659.64 1693.85 1661.3 1686.76 1664.6 1680.68C1668.02 1674.6 1672.66 1669.85 1678.52 1666.44C1684.5 1662.92 1691.27 1661.16 1698.84 1661.16C1706.31 1661.16 1712.71 1662.76 1718.04 1665.96C1723.38 1669.16 1727.48 1673.69 1730.36 1679.56C1733.35 1685.43 1734.84 1692.41 1734.84 1700.52V1706.44H1675.8V1694.92H1720.76L1718.2 1697.32C1718.2 1690.07 1716.6 1684.52 1713.4 1680.68C1710.2 1676.73 1705.62 1674.76 1699.64 1674.76C1695.16 1674.76 1691.32 1675.83 1688.12 1677.96C1685.03 1679.99 1682.63 1682.92 1680.92 1686.76C1679.32 1690.49 1678.52 1694.97 1678.52 1700.2V1701.32C1678.52 1707.19 1679.43 1712.04 1681.24 1715.88C1683.06 1719.72 1685.78 1722.6 1689.4 1724.52C1693.03 1726.44 1697.51 1727.4 1702.84 1727.4C1707.22 1727.4 1711.59 1726.76 1715.96 1725.48C1720.34 1724.09 1724.34 1721.96 1727.96 1719.08L1733.56 1732.52C1729.83 1735.61 1725.14 1738.07 1719.48 1739.88C1713.83 1741.69 1708.18 1742.6 1702.52 1742.6ZM1795.73 1741V1628.2H1844.69C1857.06 1628.2 1866.61 1631.19 1873.33 1637.16C1880.05 1643.03 1883.41 1651.29 1883.41 1661.96C1883.41 1668.89 1881.86 1674.87 1878.77 1679.88C1875.78 1684.89 1871.41 1688.73 1865.65 1691.4C1859.89 1694.07 1852.9 1695.4 1844.69 1695.4L1846.13 1693H1851.41C1855.78 1693 1859.57 1694.07 1862.77 1696.2C1866.07 1698.33 1868.95 1701.69 1871.41 1706.28L1890.29 1741H1867.73L1848.21 1705C1846.93 1702.65 1845.49 1700.84 1843.89 1699.56C1842.29 1698.17 1840.47 1697.21 1838.45 1696.68C1836.42 1696.15 1834.07 1695.88 1831.41 1695.88H1816.21V1741H1795.73ZM1816.21 1680.68H1841.17C1848.53 1680.68 1854.07 1679.19 1857.81 1676.2C1861.65 1673.11 1863.57 1668.52 1863.57 1662.44C1863.57 1656.47 1861.65 1651.99 1857.81 1649C1854.07 1645.91 1848.53 1644.36 1841.17 1644.36H1816.21V1680.68ZM1940.02 1742.6C1931.17 1742.6 1923.54 1740.95 1917.14 1737.64C1910.74 1734.33 1905.78 1729.64 1902.26 1723.56C1898.85 1717.48 1897.14 1710.28 1897.14 1701.96C1897.14 1693.85 1898.8 1686.76 1902.1 1680.68C1905.52 1674.6 1910.16 1669.85 1916.02 1666.44C1922 1662.92 1928.77 1661.16 1936.34 1661.16C1943.81 1661.16 1950.21 1662.76 1955.54 1665.96C1960.88 1669.16 1964.98 1673.69 1967.86 1679.56C1970.85 1685.43 1972.34 1692.41 1972.34 1700.52V1706.44H1913.3V1694.92H1958.26L1955.7 1697.32C1955.7 1690.07 1954.1 1684.52 1950.9 1680.68C1947.7 1676.73 1943.12 1674.76 1937.14 1674.76C1932.66 1674.76 1928.82 1675.83 1925.62 1677.96C1922.53 1679.99 1920.13 1682.92 1918.42 1686.76C1916.82 1690.49 1916.02 1694.97 1916.02 1700.2V1701.32C1916.02 1707.19 1916.93 1712.04 1918.74 1715.88C1920.56 1719.72 1923.28 1722.6 1926.9 1724.52C1930.53 1726.44 1935.01 1727.4 1940.34 1727.4C1944.72 1727.4 1949.09 1726.76 1953.46 1725.48C1957.84 1724.09 1961.84 1721.96 1965.46 1719.08L1971.06 1732.52C1967.33 1735.61 1962.64 1738.07 1956.98 1739.88C1951.33 1741.69 1945.68 1742.6 1940.02 1742.6ZM2016.82 1742.6C2012.45 1742.6 2008.18 1742.23 2004.02 1741.48C1999.97 1740.73 1996.23 1739.72 1992.82 1738.44C1989.41 1737.05 1986.42 1735.35 1983.86 1733.32L1988.98 1720.2C1991.65 1721.91 1994.53 1723.4 1997.62 1724.68C2000.71 1725.96 2003.91 1726.92 2007.22 1727.56C2010.53 1728.2 2013.78 1728.52 2016.98 1728.52C2022.1 1728.52 2025.89 1727.67 2028.34 1725.96C2030.9 1724.15 2032.18 1721.8 2032.18 1718.92C2032.18 1716.47 2031.33 1714.6 2029.62 1713.32C2028.02 1711.93 2025.57 1710.92 2022.26 1710.28L2006.26 1707.24C1999.65 1705.96 1994.58 1703.56 1991.06 1700.04C1987.65 1696.41 1985.94 1691.77 1985.94 1686.12C1985.94 1681 1987.33 1676.57 1990.1 1672.84C1992.98 1669.11 1996.93 1666.23 2001.94 1664.2C2006.95 1662.17 2012.71 1661.16 2019.22 1661.16C2022.95 1661.16 2026.58 1661.53 2030.1 1662.28C2033.62 1662.92 2036.93 1663.93 2040.02 1665.32C2043.22 1666.6 2045.99 1668.31 2048.34 1670.44L2042.9 1683.56C2040.87 1681.85 2038.53 1680.41 2035.86 1679.24C2033.19 1677.96 2030.42 1677 2027.54 1676.36C2024.77 1675.61 2022.05 1675.24 2019.38 1675.24C2014.15 1675.24 2010.26 1676.15 2007.7 1677.96C2005.25 1679.77 2004.02 1682.17 2004.02 1685.16C2004.02 1687.4 2004.77 1689.27 2006.26 1690.76C2007.75 1692.25 2010.05 1693.27 2013.14 1693.8L2029.14 1696.84C2036.07 1698.12 2041.3 1700.47 2044.82 1703.88C2048.45 1707.29 2050.26 1711.88 2050.26 1717.64C2050.26 1722.87 2048.87 1727.35 2046.1 1731.08C2043.33 1734.81 2039.43 1737.69 2034.42 1739.72C2029.41 1741.64 2023.54 1742.6 2016.82 1742.6ZM2101.99 1742.6C2093.88 1742.6 2086.84 1740.95 2080.87 1737.64C2074.89 1734.33 2070.25 1729.64 2066.95 1723.56C2063.64 1717.37 2061.99 1710.12 2061.99 1701.8C2061.99 1693.48 2063.64 1686.28 2066.95 1680.2C2070.25 1674.12 2074.89 1669.43 2080.87 1666.12C2086.84 1662.81 2093.88 1661.16 2101.99 1661.16C2110.09 1661.16 2117.13 1662.81 2123.11 1666.12C2129.08 1669.43 2133.72 1674.12 2137.03 1680.2C2140.33 1686.28 2141.99 1693.48 2141.99 1701.8C2141.99 1710.12 2140.33 1717.37 2137.03 1723.56C2133.72 1729.64 2129.08 1734.33 2123.11 1737.64C2117.13 1740.95 2110.09 1742.6 2101.99 1742.6ZM2101.99 1727.4C2107.96 1727.4 2112.76 1725.27 2116.39 1721C2120.01 1716.63 2121.83 1710.23 2121.83 1701.8C2121.83 1693.27 2120.01 1686.92 2116.39 1682.76C2112.76 1678.49 2107.96 1676.36 2101.99 1676.36C2096.01 1676.36 2091.21 1678.49 2087.59 1682.76C2083.96 1686.92 2082.15 1693.27 2082.15 1701.8C2082.15 1710.23 2083.96 1716.63 2087.59 1721C2091.21 1725.27 2096.01 1727.4 2101.99 1727.4ZM2186.81 1742.6C2180.31 1742.6 2174.92 1741.43 2170.65 1739.08C2166.39 1736.63 2163.19 1733 2161.05 1728.2C2159.03 1723.4 2158.01 1717.43 2158.01 1710.28V1662.76H2178.01V1710.6C2178.01 1714.23 2178.49 1717.27 2179.45 1719.72C2180.52 1722.17 2182.07 1723.99 2184.09 1725.16C2186.23 1726.33 2188.89 1726.92 2192.09 1726.92C2195.72 1726.92 2198.87 1726.12 2201.53 1724.52C2204.31 1722.81 2206.44 1720.47 2207.93 1717.48C2209.53 1714.39 2210.33 1710.81 2210.33 1706.76V1662.76H2230.33V1741H2210.81V1724.68H2213.05C2210.81 1730.44 2207.4 1734.87 2202.81 1737.96C2198.33 1741.05 2193 1742.6 2186.81 1742.6ZM2251.15 1741V1662.76H2270.67V1681.64H2269.07C2270.56 1675.24 2273.5 1670.39 2277.87 1667.08C2282.24 1663.67 2288.06 1661.69 2295.31 1661.16L2301.39 1660.68L2302.67 1677.64L2291.15 1678.76C2284.64 1679.4 2279.74 1681.43 2276.43 1684.84C2273.12 1688.15 2271.47 1692.84 2271.47 1698.92V1741H2251.15ZM2348.72 1742.6C2340.5 1742.6 2333.36 1740.95 2327.28 1737.64C2321.2 1734.23 2316.5 1729.43 2313.2 1723.24C2309.89 1717.05 2308.24 1709.8 2308.24 1701.48C2308.24 1693.16 2309.89 1686.01 2313.2 1680.04C2316.5 1673.96 2321.2 1669.32 2327.28 1666.12C2333.36 1662.81 2340.5 1661.16 2348.72 1661.16C2353.73 1661.16 2358.69 1661.96 2363.6 1663.56C2368.5 1665.16 2372.56 1667.4 2375.76 1670.28L2369.84 1684.2C2367.06 1681.75 2363.92 1679.88 2360.4 1678.6C2356.98 1677.32 2353.68 1676.68 2350.48 1676.68C2343.54 1676.68 2338.16 1678.87 2334.32 1683.24C2330.58 1687.51 2328.72 1693.64 2328.72 1701.64C2328.72 1709.53 2330.58 1715.77 2334.32 1720.36C2338.16 1724.84 2343.54 1727.08 2350.48 1727.08C2353.57 1727.08 2356.88 1726.44 2360.4 1725.16C2363.92 1723.88 2367.06 1721.96 2369.84 1719.4L2375.76 1733.48C2372.56 1736.25 2368.45 1738.49 2363.44 1740.2C2358.53 1741.8 2353.62 1742.6 2348.72 1742.6ZM2425.02 1742.6C2416.17 1742.6 2408.54 1740.95 2402.14 1737.64C2395.74 1734.33 2390.78 1729.64 2387.26 1723.56C2383.85 1717.48 2382.14 1710.28 2382.14 1701.96C2382.14 1693.85 2383.8 1686.76 2387.1 1680.68C2390.52 1674.6 2395.16 1669.85 2401.02 1666.44C2407 1662.92 2413.77 1661.16 2421.34 1661.16C2428.81 1661.16 2435.21 1662.76 2440.54 1665.96C2445.88 1669.16 2449.98 1673.69 2452.86 1679.56C2455.85 1685.43 2457.34 1692.41 2457.34 1700.52V1706.44H2398.3V1694.92H2443.26L2440.7 1697.32C2440.7 1690.07 2439.1 1684.52 2435.9 1680.68C2432.7 1676.73 2428.12 1674.76 2422.14 1674.76C2417.66 1674.76 2413.82 1675.83 2410.62 1677.96C2407.53 1679.99 2405.13 1682.92 2403.42 1686.76C2401.82 1690.49 2401.02 1694.97 2401.02 1700.2V1701.32C2401.02 1707.19 2401.93 1712.04 2403.74 1715.88C2405.56 1719.72 2408.28 1722.6 2411.9 1724.52C2415.53 1726.44 2420.01 1727.4 2425.34 1727.4C2429.72 1727.4 2434.09 1726.76 2438.46 1725.48C2442.84 1724.09 2446.84 1721.96 2450.46 1719.08L2456.06 1732.52C2452.33 1735.61 2447.64 1738.07 2441.98 1739.88C2436.33 1741.69 2430.68 1742.6 2425.02 1742.6ZM2518.23 1741V1628.2H2567.19C2575.51 1628.2 2582.55 1629.59 2588.31 1632.36C2594.07 1635.13 2598.44 1639.13 2601.43 1644.36C2604.41 1649.59 2605.91 1655.93 2605.91 1663.4C2605.91 1670.76 2604.41 1677.11 2601.43 1682.44C2598.44 1687.67 2594.07 1691.72 2588.31 1694.6C2582.55 1697.37 2575.51 1698.76 2567.19 1698.76H2538.71V1741H2518.23ZM2538.71 1682.6H2563.99C2571.24 1682.6 2576.73 1681 2580.47 1677.8C2584.2 1674.49 2586.07 1669.69 2586.07 1663.4C2586.07 1657.11 2584.2 1652.36 2580.47 1649.16C2576.73 1645.96 2571.24 1644.36 2563.99 1644.36H2538.71V1682.6ZM2647.88 1742.6C2638.6 1742.6 2631.72 1740.09 2627.24 1735.08C2622.87 1729.96 2620.68 1722.49 2620.68 1712.68V1628.2H2640.68V1711.72C2640.68 1714.81 2641.11 1717.48 2641.96 1719.72C2642.92 1721.85 2644.31 1723.45 2646.12 1724.52C2647.93 1725.59 2650.17 1726.12 2652.84 1726.12C2654.01 1726.12 2655.19 1726.07 2656.36 1725.96C2657.53 1725.85 2658.65 1725.64 2659.72 1725.32L2659.4 1741.16C2657.48 1741.59 2655.56 1741.91 2653.64 1742.12C2651.83 1742.44 2649.91 1742.6 2647.88 1742.6ZM2697.54 1742.6C2691.88 1742.6 2686.82 1741.53 2682.34 1739.4C2677.96 1737.16 2674.5 1734.17 2671.93 1730.44C2669.48 1726.71 2668.26 1722.49 2668.26 1717.8C2668.26 1712.04 2669.75 1707.51 2672.74 1704.2C2675.72 1700.79 2680.58 1698.33 2687.3 1696.84C2694.02 1695.35 2703.03 1694.6 2714.34 1694.6H2722.34V1706.12H2714.5C2709.48 1706.12 2705.27 1706.33 2701.86 1706.76C2698.44 1707.08 2695.67 1707.67 2693.54 1708.52C2691.51 1709.27 2690.02 1710.33 2689.06 1711.72C2688.2 1713.11 2687.78 1714.81 2687.78 1716.84C2687.78 1720.36 2689 1723.24 2691.46 1725.48C2693.91 1727.72 2697.32 1728.84 2701.7 1728.84C2705.22 1728.84 2708.31 1728.04 2710.98 1726.44C2713.75 1724.73 2715.94 1722.44 2717.54 1719.56C2719.14 1716.68 2719.94 1713.37 2719.94 1709.64V1691.24C2719.94 1685.91 2718.76 1682.07 2716.42 1679.72C2714.07 1677.37 2710.12 1676.2 2704.58 1676.2C2700.2 1676.2 2695.72 1676.89 2691.14 1678.28C2686.55 1679.56 2681.91 1681.59 2677.22 1684.36L2671.46 1670.76C2674.23 1668.84 2677.48 1667.19 2681.22 1665.8C2685.06 1664.31 2689.06 1663.19 2693.22 1662.44C2697.48 1661.59 2701.48 1661.16 2705.22 1661.16C2712.9 1661.16 2719.19 1662.33 2724.1 1664.68C2729.11 1667.03 2732.84 1670.6 2735.3 1675.4C2737.75 1680.09 2738.98 1686.17 2738.98 1693.64V1741H2720.26V1724.36H2721.54C2720.79 1728.09 2719.3 1731.35 2717.06 1734.12C2714.92 1736.79 2712.2 1738.87 2708.9 1740.36C2705.59 1741.85 2701.8 1742.6 2697.54 1742.6ZM2759.28 1741V1662.76H2778.8V1678.44H2777.04C2779.38 1672.79 2783.01 1668.52 2787.92 1665.64C2792.93 1662.65 2798.58 1661.16 2804.88 1661.16C2811.17 1661.16 2816.34 1662.33 2820.4 1664.68C2824.45 1667.03 2827.49 1670.6 2829.52 1675.4C2831.54 1680.09 2832.56 1686.07 2832.56 1693.32V1741H2812.56V1694.28C2812.56 1690.23 2812.02 1686.92 2810.96 1684.36C2810 1681.8 2808.45 1679.93 2806.32 1678.76C2804.29 1677.48 2801.68 1676.84 2798.48 1676.84C2794.64 1676.84 2791.28 1677.69 2788.4 1679.4C2785.52 1681 2783.28 1683.35 2781.68 1686.44C2780.08 1689.43 2779.28 1692.95 2779.28 1697V1741H2759.28ZM2852.87 1741V1662.76H2872.39V1678.44H2870.63C2872.98 1672.79 2876.6 1668.52 2881.51 1665.64C2886.52 1662.65 2892.18 1661.16 2898.47 1661.16C2904.76 1661.16 2909.94 1662.33 2913.99 1664.68C2918.04 1667.03 2921.08 1670.6 2923.11 1675.4C2925.14 1680.09 2926.15 1686.07 2926.15 1693.32V1741H2906.15V1694.28C2906.15 1690.23 2905.62 1686.92 2904.55 1684.36C2903.59 1681.8 2902.04 1679.93 2899.91 1678.76C2897.88 1677.48 2895.27 1676.84 2892.07 1676.84C2888.23 1676.84 2884.87 1677.69 2881.99 1679.4C2879.11 1681 2876.87 1683.35 2875.27 1686.44C2873.67 1689.43 2872.87 1692.95 2872.87 1697V1741H2852.87ZM2945.18 1645.96V1626.44H2967.58V1645.96H2945.18ZM2946.46 1741V1662.76H2966.46V1741H2946.46ZM2987.24 1741V1662.76H3006.76V1678.44H3005C3007.35 1672.79 3010.98 1668.52 3015.88 1665.64C3020.9 1662.65 3026.55 1661.16 3032.84 1661.16C3039.14 1661.16 3044.31 1662.33 3048.36 1664.68C3052.42 1667.03 3055.46 1670.6 3057.48 1675.4C3059.51 1680.09 3060.52 1686.07 3060.52 1693.32V1741H3040.52V1694.28C3040.52 1690.23 3039.99 1686.92 3038.92 1684.36C3037.96 1681.8 3036.42 1679.93 3034.28 1678.76C3032.26 1677.48 3029.64 1676.84 3026.44 1676.84C3022.6 1676.84 3019.24 1677.69 3016.36 1679.4C3013.48 1681 3011.24 1683.35 3009.64 1686.44C3008.04 1689.43 3007.24 1692.95 3007.24 1697V1741H2987.24ZM3117.32 1771.4C3110.06 1771.4 3103.24 1770.55 3096.84 1768.84C3090.54 1767.24 3085 1764.73 3080.2 1761.32L3085.96 1747.4C3088.94 1749.32 3092.09 1750.92 3095.4 1752.2C3098.7 1753.59 3102.06 1754.6 3105.48 1755.24C3108.89 1755.88 3112.3 1756.2 3115.72 1756.2C3122.86 1756.2 3128.2 1754.44 3131.72 1750.92C3135.34 1747.51 3137.16 1742.39 3137.16 1735.56V1721.16H3138.6C3137 1726.6 3133.64 1730.97 3128.52 1734.28C3123.5 1737.48 3117.8 1739.08 3111.4 1739.08C3104.36 1739.08 3098.22 1737.48 3093 1734.28C3087.77 1730.97 3083.72 1726.39 3080.84 1720.52C3077.96 1714.65 3076.52 1707.83 3076.52 1700.04C3076.52 1692.25 3077.96 1685.48 3080.84 1679.72C3083.72 1673.85 3087.77 1669.32 3093 1666.12C3098.22 1662.81 3104.36 1661.16 3111.4 1661.16C3118.01 1661.16 3123.77 1662.81 3128.68 1666.12C3133.69 1669.32 3136.94 1673.59 3138.44 1678.92H3137.16V1662.76H3156.68V1733.16C3156.68 1741.59 3155.18 1748.63 3152.2 1754.28C3149.21 1760.04 3144.78 1764.31 3138.92 1767.08C3133.05 1769.96 3125.85 1771.4 3117.32 1771.4ZM3116.84 1723.88C3123.02 1723.88 3127.93 1721.75 3131.56 1717.48C3135.18 1713.21 3137 1707.4 3137 1700.04C3137 1692.68 3135.18 1686.92 3131.56 1682.76C3127.93 1678.49 3123.02 1676.36 3116.84 1676.36C3110.65 1676.36 3105.74 1678.49 3102.12 1682.76C3098.49 1686.92 3096.68 1692.68 3096.68 1700.04C3096.68 1707.4 3098.49 1713.21 3102.12 1717.48C3105.74 1721.75 3110.65 1723.88 3116.84 1723.88ZM3265.65 1742.6C3259.03 1742.6 3253.22 1740.95 3248.21 1737.64C3243.3 1734.33 3240.05 1729.91 3238.45 1724.36H3240.05V1741H3220.53V1628.2H3240.53V1678.6H3238.61C3240.31 1673.37 3243.62 1669.16 3248.53 1665.96C3253.43 1662.76 3259.14 1661.16 3265.65 1661.16C3272.58 1661.16 3278.61 1662.81 3283.73 1666.12C3288.85 1669.43 3292.85 1674.12 3295.73 1680.2C3298.61 1686.17 3300.05 1693.37 3300.05 1701.8C3300.05 1710.12 3298.61 1717.37 3295.73 1723.56C3292.85 1729.64 3288.79 1734.33 3283.57 1737.64C3278.45 1740.95 3272.47 1742.6 3265.65 1742.6ZM3260.05 1727.4C3266.02 1727.4 3270.82 1725.27 3274.45 1721C3278.07 1716.63 3279.89 1710.23 3279.89 1701.8C3279.89 1693.27 3278.07 1686.92 3274.45 1682.76C3270.82 1678.49 3266.02 1676.36 3260.05 1676.36C3254.07 1676.36 3249.27 1678.49 3245.65 1682.76C3242.02 1686.92 3240.21 1693.27 3240.21 1701.8C3240.21 1710.23 3242.02 1716.63 3245.65 1721C3249.27 1725.27 3254.07 1727.4 3260.05 1727.4ZM3321.94 1769.8L3338.26 1733.8V1742.12L3303.86 1662.76H3325.14L3349.46 1723.4H3344.66L3369.46 1662.76H3389.62L3342.58 1769.8H3321.94ZM3444.16 1741V1628.2H3464.64V1723.56H3518.72V1741H3444.16ZM3557.85 1742.6C3552.19 1742.6 3547.13 1741.53 3542.65 1739.4C3538.27 1737.16 3534.81 1734.17 3532.25 1730.44C3529.79 1726.71 3528.57 1722.49 3528.57 1717.8C3528.57 1712.04 3530.06 1707.51 3533.05 1704.2C3536.03 1700.79 3540.89 1698.33 3547.61 1696.84C3554.33 1695.35 3563.34 1694.6 3574.65 1694.6H3582.65V1706.12H3574.81C3569.79 1706.12 3565.58 1706.33 3562.17 1706.76C3558.75 1707.08 3555.98 1707.67 3553.85 1708.52C3551.82 1709.27 3550.33 1710.33 3549.37 1711.72C3548.51 1713.11 3548.09 1714.81 3548.09 1716.84C3548.09 1720.36 3549.31 1723.24 3551.77 1725.48C3554.22 1727.72 3557.63 1728.84 3562.01 1728.84C3565.53 1728.84 3568.62 1728.04 3571.29 1726.44C3574.06 1724.73 3576.25 1722.44 3577.85 1719.56C3579.45 1716.68 3580.25 1713.37 3580.25 1709.64V1691.24C3580.25 1685.91 3579.07 1682.07 3576.73 1679.72C3574.38 1677.37 3570.43 1676.2 3564.89 1676.2C3560.51 1676.2 3556.03 1676.89 3551.45 1678.28C3546.86 1679.56 3542.22 1681.59 3537.53 1684.36L3531.77 1670.76C3534.54 1668.84 3537.79 1667.19 3541.53 1665.8C3545.37 1664.31 3549.37 1663.19 3553.53 1662.44C3557.79 1661.59 3561.79 1661.16 3565.53 1661.16C3573.21 1661.16 3579.5 1662.33 3584.41 1664.68C3589.42 1667.03 3593.15 1670.6 3595.61 1675.4C3598.06 1680.09 3599.29 1686.17 3599.29 1693.64V1741H3580.57V1724.36H3581.85C3581.1 1728.09 3579.61 1731.35 3577.37 1734.12C3575.23 1736.79 3572.51 1738.87 3569.21 1740.36C3565.9 1741.85 3562.11 1742.6 3557.85 1742.6ZM3619.59 1741V1662.76H3639.11V1681.64H3637.51C3639 1675.24 3641.93 1670.39 3646.31 1667.08C3650.68 1663.67 3656.49 1661.69 3663.75 1661.16L3669.83 1660.68L3671.11 1677.64L3659.59 1678.76C3653.08 1679.4 3648.17 1681.43 3644.87 1684.84C3641.56 1688.15 3639.91 1692.84 3639.91 1698.92V1741H3619.59ZM3707.22 1742.6C3701.57 1742.6 3696.5 1741.53 3692.02 1739.4C3687.65 1737.16 3684.18 1734.17 3681.62 1730.44C3679.17 1726.71 3677.94 1722.49 3677.94 1717.8C3677.94 1712.04 3679.44 1707.51 3682.42 1704.2C3685.41 1700.79 3690.26 1698.33 3696.98 1696.84C3703.7 1695.35 3712.72 1694.6 3724.02 1694.6H3732.02V1706.12H3724.18C3719.17 1706.12 3714.96 1706.33 3711.54 1706.76C3708.13 1707.08 3705.36 1707.67 3703.22 1708.52C3701.2 1709.27 3699.7 1710.33 3698.74 1711.72C3697.89 1713.11 3697.46 1714.81 3697.46 1716.84C3697.46 1720.36 3698.69 1723.24 3701.14 1725.48C3703.6 1727.72 3707.01 1728.84 3711.38 1728.84C3714.9 1728.84 3718 1728.04 3720.66 1726.44C3723.44 1724.73 3725.62 1722.44 3727.22 1719.56C3728.82 1716.68 3729.62 1713.37 3729.62 1709.64V1691.24C3729.62 1685.91 3728.45 1682.07 3726.1 1679.72C3723.76 1677.37 3719.81 1676.2 3714.26 1676.2C3709.89 1676.2 3705.41 1676.89 3700.82 1678.28C3696.24 1679.56 3691.6 1681.59 3686.9 1684.36L3681.14 1670.76C3683.92 1668.84 3687.17 1667.19 3690.9 1665.8C3694.74 1664.31 3698.74 1663.19 3702.9 1662.44C3707.17 1661.59 3711.17 1661.16 3714.9 1661.16C3722.58 1661.16 3728.88 1662.33 3733.78 1664.68C3738.8 1667.03 3742.53 1670.6 3744.98 1675.4C3747.44 1680.09 3748.66 1686.17 3748.66 1693.64V1741H3729.94V1724.36H3731.22C3730.48 1728.09 3728.98 1731.35 3726.74 1734.12C3724.61 1736.79 3721.89 1738.87 3718.58 1740.36C3715.28 1741.85 3711.49 1742.6 3707.22 1742.6Z" fill="#4A4550"/>
<path d="M714.252 555.484C714.252 481.221 654.1 421 579.896 421C505.673 421 445.532 481.218 445.532 555.484C445.532 629.742 505.676 689.952 579.896 689.952C654.1 689.952 714.252 629.742 714.252 555.484Z" fill="#51FF9B"/>
<path d="M351.72 555.484C351.72 481.221 291.565 421 217.35 421C143.182 421 83 481.221 83 555.484C83 629.742 143.182 689.952 217.35 689.952C291.565 689.952 351.72 629.742 351.72 555.484Z" fill="#51FF9B"/>
<path d="M714.252 1281.31C714.252 1207.01 654.1 1146.77 579.896 1146.77C505.673 1146.77 445.532 1207.01 445.532 1281.31C445.532 1355.58 505.676 1415.83 579.896 1415.83C654.1 1415.83 714.252 1355.58 714.252 1281.31Z" fill="#700DFF"/>
<path d="M351.72 1281.32C351.72 1207.02 291.562 1146.79 217.35 1146.79C143.182 1146.79 83 1207.02 83 1281.32C83 1355.59 143.182 1415.84 217.35 1415.84C291.565 1415.84 351.72 1355.59 351.72 1281.32Z" fill="#700DFF"/>
<path d="M714.201 918.366C714.201 844.113 654.046 783.857 579.85 783.857C505.671 783.857 445.483 844.116 445.483 918.366C445.483 992.679 505.671 1052.87 579.85 1052.87C654.046 1052.87 714.201 992.679 714.201 918.366Z" fill="#66BFD3"/>
<path d="M351.682 918.366C351.682 844.113 291.565 783.857 217.329 783.857C143.125 783.857 83 844.116 83 918.366C83 992.679 143.125 1052.87 217.329 1052.87C291.565 1052.87 351.682 992.679 351.682 918.366Z" fill="#66BFD3"/>
</svg>
